<svg width="20" height="18" viewBox="0 0 20 18" fill="none" xmlns="http://www.w3.org/2000/svg">
<path d="M12.4336 0C13.136 0 13.7869 0.36852 14.1484 0.9707L14.9209 2.25684C15.0113 2.40744 15.174 2.5 15.3496 2.5H17C18.6569 2.5 20 3.84315 20 5.5V15C20 16.6569 18.6569 18 17 18H3C1.34315 18 0 16.6569 0 15V5.5C0 3.84315 1.34315 2.5 3 2.5H4.65039C4.82602 2.5 4.98874 2.40744 5.0791 2.25684L5.85156 0.9707C6.21306 0.36852 6.86403 0 7.56641 0H12.4336ZM6.79492 3.28613C6.34311 4.03915 5.52855 4.5 4.65039 4.5H3C2.44772 4.5 2 4.94772 2 5.5V15C2 15.5523 2.44772 16 3 16H17C17.5523 16 18 15.5523 18 15V5.5C18 4.94772 17.5523 4.5 17 4.5H15.3496C14.4715 4.5 13.6569 4.03915 13.2051 3.28613L12.4336 2H7.56641L6.79492 3.28613ZM10 5.5C12.4853 5.5 14.5 7.5147 14.5 10C14.5 12.4853 12.4853 14.5 10 14.5C7.51472 14.5 5.5 12.4853 5.5 10C5.5 7.5147 7.51472 5.5 10 5.5ZM10 7.5C8.6193 7.5 7.5 8.6193 7.5 10C7.5 11.3807 8.6193 12.5 10 12.5C11.3807 12.5 12.5 11.3807 12.5 10C12.5 8.6193 11.3807 7.5 10 7.5Z" fill="#6C0E24"/>
</svg>
