<svg width="22" height="22" viewBox="0 0 22 22" fill="none" xmlns="http://www.w3.org/2000/svg">
<path d="M0 21.2164C0 16.7981 3.58172 13.2164 8 13.2164C12.4183 13.2164 16 16.7981 16 21.2164H14C14 17.9027 11.3137 15.2164 8 15.2164C4.68629 15.2164 2 17.9027 2 21.2164H0ZM8 12.2164C4.685 12.2164 2 9.53143 2 6.21645C2 2.90145 4.685 0.216451 8 0.216451C11.315 0.216451 14 2.90145 14 6.21645C14 9.53143 11.315 12.2164 8 12.2164ZM8 10.2164C10.21 10.2164 12 8.42645 12 6.21645C12 4.00645 10.21 2.21645 8 2.21645C5.79 2.21645 4 4.00645 4 6.21645C4 8.42645 5.79 10.2164 8 10.2164ZM20.5476 0C21.4773 1.87294 22 3.98366 22 6.21645C22 8.44924 21.4773 10.5599 20.5476 12.4329L18.9027 11.2365C19.6071 9.70923 20 8.00874 20 6.21645C20 4.42415 19.6071 2.72363 18.9027 1.19633L20.5476 0ZM17.2463 2.40094C17.732 3.57669 18 4.86527 18 6.21645C18 7.56762 17.732 8.8562 17.2463 10.0319L15.5694 8.81238C15.8485 7.99837 16 7.1251 16 6.21645C16 5.30779 15.8485 4.43452 15.5694 3.62051L17.2463 2.40094Z" fill="white"/>
</svg>
