<svg width="16" height="21" viewBox="0 0 16 21" fill="none" xmlns="http://www.w3.org/2000/svg">
<path d="M0 21C0 16.5817 3.58172 13 8 13C12.4183 13 16 16.5817 16 21H0ZM9 15.083V19H13.6586C12.9423 16.9735 11.1684 15.4467 9 15.083ZM7 19V15.083C4.83165 15.4467 3.05766 16.9735 2.34141 19H7ZM8 12C4.685 12 2 9.315 2 6C2 2.685 4.685 0 8 0C11.315 0 14 2.685 14 6C14 9.315 11.315 12 8 12ZM8 10C10.2104 10 12 8.21043 12 6C12 3.78957 10.2104 2 8 2C5.78957 2 4 3.78957 4 6C4 8.21043 5.78957 10 8 10Z" fill="white"/>
</svg>
